# xmcd
# 
# Track frame offsets:
#     150
#     14292
#     25337
#     39782
#     51812
#     65900
#     79797
#     94332
#     108492
#     119050
#     140957
#     163940
#     181132
#     206307
#     230490
#     252865
#     278912
# 
# Disc length: 4105
# 
# Revision: 0
# Processed by: cddbd v1.5.2PL0 Copyright (c) Steve Scherf et al.
# Submitted via: fre:ac v1.0.17
# 
DISCID=f5100711
DTITLE=Jazz and Dintorni # 50 - Count Basie
DYEAR=1994
DGENRE=Jazz
TTITLE0=Oh, Lady Be Good
TTITLE1=Louisiana
TTITLE2=Love Jumped Out
TTITLE3=Tickle Toe
TTITLE4=Goin' to Chicago Blues
TTITLE5=One o' Clock Jump
TTITLE6=Lester Leaps In
TTITLE7=Jumpin' at the Woodside
TTITLE8=Moten Swing
TTITLE9=St. Louis Blues
TTITLE10=Blues for Little Jazz
TTITLE11=Take the 'A' Train
TTITLE12=Battle Royal
TTITLE13=On the Sunny Side of the Street
TTITLE14=I Surrender, Dear
TTITLE15=Sandman
TTITLE16=Blues for Eric
EXTD=
EXTT0=
EXTT1=
EXTT2=
EXTT3=
EXTT4=
EXTT5=
EXTT6=
EXTT7=
EXTT8=
EXTT9=
EXTT10=
EXTT11=
EXTT12=
EXTT13=
EXTT14=
EXTT15=
EXTT16=
PLAYORDER=
